# xmcd
#
# Track frame offsets: 
#        150
#        39745
#        95771
#        129812
#        177324
#        217365
#        246812
#
# Disc length: 3849 seconds
#
# Revision: 7
# Processed by: cddbd v1.5.2PL0 Copyright (c) Steve Scherf et al.
# Submitted via: ExactAudioCopy v0.99pb5
#
DISCID=650f0707
DTITLE=Fritz Reiner-Chicago Symphony Orchestra - Dvorák: New World Sym
DTITLE=phony and Other Orchestral Masterworks
DYEAR=1957
DGENRE=Classical
TTITLE0=Antonín Dvorák - Symphony No.9 in E minor, Op.95 "From The New
TTITLE0=World" - 1. Adagio - Allegro molto
TTITLE1=Antonín Dvorák - Symphony No.9 in E minor, Op.95 "From The New
TTITLE1=World" - 2. Largo
TTITLE2=Antonín Dvorák - Symphony No.9 in E minor, Op.95 "From The New
TTITLE2=World" - 3. Scherzo: Molto vivace
TTITLE3=Antonín Dvorák - Symphony No.9 in E minor, Op.95 "From The New
TTITLE3=World" - 4. Allegro con fuoco
TTITLE4=Antonín Dvorák - Carnival Overture, Op.92  (Recorded in 1956)
TTITLE5=Bedrich Smetana - The Bartered Bride: Overture  (Recorded in 1
TTITLE5=955)
TTITLE6=Jaromír Weinberger - Schwanda: Polka and Fugue  (Recorded in 1
TTITLE6=956)
EXTD=YEAR: 1955
EXTT0=
EXTT1=
EXTT2=
EXTT3=
EXTT4=
EXTT5=
EXTT6=
PLAYORDER=
